<svg xmlns="http://www.w3.org/2000/svg" viewBox="0 0 1488 1488"><defs><style>.cls-1{fill:#4f46e5;}.cls-2{fill:#fefefe;fill-rule:evenodd;}</style></defs><g id="Layer_2" data-name="Layer 2"><g id="Layer_1-2" data-name="Layer 1"><circle class="cls-1" cx="744" cy="744" r="744"/><path class="cls-2" d="M924.59,1182.06a487.17,487.17,0,0,1-146.43,33.48V1357a631.8,631.8,0,0,0,146.43-25.31c248.43-73.87,431.58-294.86,443.77-559.4.48-9.43.64-18.86.64-28.29a607.41,607.41,0,0,0-11.07-115.21c-43.62-225.24-212.66-406.94-433.34-472.48A640.38,640.38,0,0,0,778.16,131v928.46H924.59V772.29h299.59c-11.23,185.79-131.84,342.65-299.59,409.77Zm0-876.12C1065.4,362.21,1173,482,1210.54,628.79H924.59Z"/><path class="cls-2" d="M563.41,1182.06a487.17,487.17,0,0,0,146.43,33.48V1357a633.28,633.28,0,0,1-146.43-25.31C315,1257.82,131.83,1036.83,119.64,772.29c-.32-9.43-.64-18.86-.64-28.29a607.41,607.41,0,0,1,11.07-115.21c43.62-225.24,212.82-406.94,433.34-472.48A641.89,641.89,0,0,1,709.84,131v928.46H563.41V772.29H264c11.07,185.79,131.68,342.65,299.43,409.77Zm0-876.12C422.6,362.21,315,482,277.46,628.79h286Z"/></g></g></svg>