<svg xmlns="http://www.w3.org/2000/svg" viewBox="0 0 1250 1226"><defs><style>.cls-1{fill:#4f46e5;fill-rule:evenodd;}</style></defs><g id="Layer_2" data-name="Layer 2"><g id="Layer_1-2" data-name="Layer 1"><g id="Layer_2-2" data-name="Layer 2"><g id="Layer_1-2-2" data-name="Layer 1-2"><path class="cls-1" d="M805.59,1051.06a487.18,487.18,0,0,1-146.43,33.48V1226a631.73,631.73,0,0,0,146.43-25.31c248.43-73.87,431.58-294.86,443.77-559.4.48-9.43.64-18.86.64-28.29a606.91,606.91,0,0,0-11.07-115.21C1195.31,272.55,1026.27,90.85,805.59,25.31A640.59,640.59,0,0,0,659.16,0V928.46H805.59V641.29h299.59C1094,827.08,973.34,983.94,805.59,1051.06Zm0-876.12C946.4,231.21,1054,351,1091.54,497.79H805.59Z"/><path class="cls-1" d="M444.41,1051.06a487.18,487.18,0,0,0,146.43,33.48V1226a633.51,633.51,0,0,1-146.43-25.31C196,1126.82,12.83,905.83.64,641.29.32,631.86,0,622.43,0,613A606.91,606.91,0,0,1,11.07,497.79C54.69,272.55,223.89,90.85,444.41,25.31A641.77,641.77,0,0,1,590.84,0V928.46H444.41V641.29H145c11.07,185.79,131.68,342.65,299.43,409.77Zm0-876.12C303.6,231.21,196,351,158.46,497.79h286Z"/></g></g></g></g></svg>